<?xml version="1.0" encoding="UTF-8"?>
<svg version="1.1" xmlns="http://www.w3.org/2000/svg" width="512" height="512">
<path d="M0 0 C0.91281738 0.22574707 1.82563477 0.45149414 2.76611328 0.68408203 C35.45990083 8.97106757 62.658607 24.84863066 87 48 C87.94939453 48.87011719 87.94939453 48.87011719 88.91796875 49.7578125 C98.95118315 59.24289405 107.00366551 71.15885177 114 83 C114.37366699 83.63212402 114.74733398 84.26424805 115.13232422 84.91552734 C129.41270053 109.49969757 136.3323431 136.76353665 138 165 C138.0721875 166.06992188 138.144375 167.13984375 138.21875 168.2421875 C138.80529507 185.49638827 134.32077342 202.74492352 129 219 C128.68289063 219.96921387 128.36578125 220.93842773 128.0390625 221.93701172 C122.52047293 238.51684404 115.63355559 254.29516974 108 270 C107.70784607 270.60279785 107.41569214 271.2055957 107.11468506 271.82666016 C98.67259103 289.235103 89.74445038 306.27840538 80 323 C78.9881245 324.75150417 77.97626571 326.50301807 76.9649353 328.25483704 C68.49732458 342.90882058 59.79104052 357.36799845 50.57714844 371.56884766 C49.05813518 373.91038543 47.54731584 376.25698966 46.0390625 378.60546875 C43.8094856 382.07297263 41.56734614 385.53197786 39.31445312 388.984375 C38.41012374 390.37110296 37.50789769 391.75920412 36.60742188 393.1484375 C35.24441457 395.24887157 33.87337567 397.34383477 32.5 399.4375 C32.09040039 400.07099365 31.68080078 400.7044873 31.25878906 401.35717773 C29.3379465 404.26541065 27.94200984 406.03866011 25 408 C24.175 408.12375 23.35 408.2475 22.5 408.375 C19.95046915 408.82127284 19.95046915 408.82127284 18.1875 410.5 C16.63325386 413.77209713 16.85854438 416.40624919 17.08984375 419.9765625 C17 422 17 422 15 424 C14.030625 424.103125 13.06125 424.20625 12.0625 424.3125 C8.8986053 424.71468003 8.8986053 424.71468003 7.125 427.0625 C5.74175008 430.04279292 5.74175008 430.04279292 6.2890625 433.62109375 C6.35373639 439.18495082 3.44802852 442.66704217 0.25 447 C-0.33547607 447.82306641 -0.92095215 448.64613281 -1.52416992 449.49414062 C-3.32702922 452.01334377 -5.15757711 454.5096211 -7 457 C-7.54930176 457.74507813 -8.09860352 458.49015625 -8.66455078 459.2578125 C-11.17634847 462.6531765 -13.71169304 466.02890117 -16.2734375 469.38671875 C-18.0127285 471.67203803 -19.70734825 473.97739768 -21.3515625 476.33203125 C-22.03992188 477.31558594 -22.72828125 478.29914063 -23.4375 479.3125 C-24.01371094 480.15425781 -24.58992187 480.99601562 -25.18359375 481.86328125 C-28.01945466 485.19922946 -30.55524765 486.78416217 -34.90234375 487.43359375 C-35.90394531 487.43488281 -36.90554688 487.43617188 -37.9375 487.4375 C-39.43603516 487.46650391 -39.43603516 487.46650391 -40.96484375 487.49609375 C-46.4808472 486.5945076 -49.69319058 483.63383978 -52.97265625 479.3046875 C-54.01300161 477.83543223 -55.04241158 476.3583911 -56.0625 474.875 C-57.21061029 473.2445612 -58.35905707 471.61435931 -59.5078125 469.984375 C-60.08821289 469.15357422 -60.66861328 468.32277344 -61.26660156 467.46679688 C-63.42473456 464.39556084 -65.62816306 461.35903935 -67.83740234 458.32446289 C-83.1494976 437.27675673 -97.65198272 415.71094356 -112 394 C-112.57192078 393.13486786 -112.57192078 393.13486786 -113.15539551 392.2522583 C-127.06283913 371.20380824 -140.28807483 349.79018086 -153 328 C-153.49854492 327.15002441 -153.99708984 326.30004883 -154.51074219 325.42431641 C-162.65527725 311.51632821 -170.16632436 297.31574107 -177.48876953 282.95947266 C-178.74291638 280.50345195 -180.00696187 278.05310631 -181.27734375 275.60546875 C-190.65414015 257.39879756 -198.81873738 238.52954269 -205 219 C-205.27183105 218.14986328 -205.54366211 217.29972656 -205.82373047 216.42382812 C-211.08024744 199.75908957 -215.09901062 182.58417 -214 165 C-213.95746094 164.26265625 -213.91492188 163.5253125 -213.87109375 162.765625 C-210.91990227 115.24387498 -190.10825455 72.12334222 -155 40 C-132.43489157 20.37635255 -105.01866839 6.89067861 -76 0 C-75.32710937 -0.16661133 -74.65421875 -0.33322266 -73.9609375 -0.50488281 C-51.37108035 -5.8533637 -22.49055997 -5.73120359 0 0 Z " fill="#F4603A" transform="translate(294,14)"/>
<path d="M0 0 C2.12514623 0.71251978 2.12514623 0.71251978 5.20751953 1.27001953 C8.16415704 1.98046337 9.74182068 2.48298057 11.92236328 4.60986328 C13.56458089 9.08560211 14.1514741 13.53641607 14.64697266 18.24365234 C14.93346771 20.70527471 15.325329 23.12947136 15.75048828 25.57080078 C19.60418616 47.87974289 19.60418616 47.87974289 14.92236328 54.60986328 C11.88851568 57.60352747 8.66364112 60.35249409 5.20751953 62.84814453 C-0.0935534 66.77336647 -2.23425914 71.61562706 -3.56591797 77.92236328 C-4.333363 87.07151194 0.73741022 95.42961238 6.10986328 102.48095703 C8.29162456 104.96952849 10.54764545 107.30572273 12.92236328 109.60986328 C13.53595703 110.23248047 14.14955078 110.85509766 14.78173828 111.49658203 C25.55831352 121.74353925 38.98362078 126.43772267 52.92236328 130.60986328 C41.9772941 152.80045452 23.27491248 168.54079084 -0.07763672 176.60986328 C-25.41801696 183.90106932 -52.57259885 180.19166716 -75.76513672 168.29736328 C-97.68399149 156.06174807 -111.95400875 136.42949431 -119.07763672 112.60986328 C-119.34397536 110.82589693 -119.55686603 109.03270174 -119.70263672 107.23486328 C-119.77740234 106.36087891 -119.85216797 105.48689453 -119.92919922 104.58642578 C-119.97818359 103.93416016 -120.02716797 103.28189453 -120.07763672 102.60986328 C-95.73549704 102.22142488 -95.73549704 102.22142488 -90.07763672 107.60986328 C-89.05514505 109.17876584 -88.05658333 110.76342726 -87.07763672 112.35986328 C-85.68610917 114.72558593 -85.68610917 114.72558593 -84.07763672 116.60986328 C-80.81889322 117.36540648 -80.81889322 117.36540648 -78.07763672 116.60986328 C-77.17298653 113.12340245 -76.75549788 111.28415389 -78.33544922 107.97705078 C-83.23983527 101.43102923 -86.96818996 96.83074586 -95.07763672 94.60986328 C-98.2192673 94.26447264 -101.35726208 94.14859304 -104.51513672 94.04736328 C-110.10915513 93.84082843 -115.5486094 93.51028361 -121.07763672 92.60986328 C-121.89383049 73.22526124 -118.34046703 57.70901 -109.07763672 40.60986328 C-108.42408203 39.39363281 -108.42408203 39.39363281 -107.75732422 38.15283203 C-104.38852807 35.05824022 -99.49720537 36.20782901 -95.18310547 36.35986328 C-76.71373429 37.39819757 -63.04332594 43.23303717 -48.07763672 53.60986328 C-48.41299701 59.21876419 -50.75218926 61.98591563 -54.57763672 65.79736328 C-55.67128483 66.93167477 -56.76239933 68.06843405 -57.85107422 69.20751953 C-58.39473633 69.7735791 -58.93839844 70.33963867 -59.49853516 70.92285156 C-68.04860112 79.44531117 -68.04860112 79.44531117 -72.39013672 89.98486328 C-72.056094 93.85975887 -71.44050316 95.57189215 -69.07763672 98.60986328 C-66.18649759 101.03862617 -63.3183812 102.49267336 -59.83154297 103.91455078 C-58.82929688 104.33349609 -57.82705078 104.75244141 -56.79443359 105.18408203 C-54.6976543 106.04876005 -52.59869511 106.90817143 -50.49755859 107.76220703 C-45.00248586 110.07034934 -40.87185634 111.96116031 -37.07763672 116.60986328 C-36.47951172 117.33173828 -35.88138672 118.05361328 -35.26513672 118.79736328 C-33.09865257 123.92850994 -33.29795699 129.1725012 -34.98754883 134.4543457 C-36.22079969 137.39045538 -37.55323189 140.24937186 -38.95263672 143.10986328 C-39.41283203 144.09728516 -39.87302734 145.08470703 -40.34716797 146.10205078 C-43.73206042 153.26428698 -43.73206042 153.26428698 -46.07763672 155.60986328 C-48.49169922 155.58251953 -48.49169922 155.58251953 -51.07763672 154.60986328 C-52.85107422 152.10595703 -52.85107422 152.10595703 -54.45263672 149.04736328 C-56.13148115 146.05131474 -56.13148115 146.05131474 -58.07763672 143.60986328 C-61.88045962 142.68646754 -61.88045962 142.68646754 -65.07763672 143.60986328 C-65.44886014 148.54495105 -64.60491152 151.12507627 -61.89013672 155.23486328 C-61.29845703 156.15525391 -60.70677734 157.07564453 -60.09716797 158.02392578 C-57.48665735 161.36659122 -55.05768787 164.17926997 -50.79638672 165.10595703 C-46.11106378 164.98222491 -42.72101067 164.84841791 -39.07763672 161.60986328 C-31.19301711 150.53741476 -23.48430562 136.40728014 -24.51123047 122.53564453 C-25.31934298 118.36132544 -26.58451921 115.04944207 -29.07763672 111.60986328 C-29.63193359 110.79388672 -30.18623047 109.97791016 -30.75732422 109.13720703 C-33.59762053 106.04348361 -36.70472323 104.46907946 -40.45263672 102.73486328 C-41.8772343 102.05021379 -43.30171092 101.36531256 -44.72607422 100.68017578 C-45.44633789 100.33889648 -46.16660156 99.99761719 -46.90869141 99.64599609 C-50.32242115 98.0152139 -53.69868489 96.31120905 -57.07763672 94.60986328 C-58.23263672 94.03236328 -59.38763672 93.45486328 -60.57763672 92.85986328 C-61.40263672 92.44736328 -62.22763672 92.03486328 -63.07763672 91.60986328 C-59.07822683 82.6320213 -50.909873 75.20922567 -44.24169922 68.11767578 C-40.99356355 64.35359077 -38.64920409 61.25915984 -38.64013672 56.17236328 C-38.61113281 55.09148437 -38.61113281 55.09148437 -38.58154297 53.98876953 C-39.56325061 49.28121086 -42.16247128 46.30408343 -45.92529297 43.44970703 C-46.98619141 42.82193359 -48.04708984 42.19416016 -49.14013672 41.54736328 C-49.70796875 41.2101123 -50.27580078 40.87286133 -50.86083984 40.52539062 C-56.08848981 37.47884211 -61.49108589 34.91968718 -67.07763672 32.60986328 C-67.82553467 32.28115234 -68.57343262 31.95244141 -69.34399414 31.61376953 C-72.32901611 30.51754641 -75.10885594 30.00426438 -78.25341797 29.53955078 C-79.41035156 29.36552734 -80.56728516 29.19150391 -81.75927734 29.01220703 C-82.95746094 28.83818359 -84.15564453 28.66416016 -85.39013672 28.48486328 C-86.60765625 28.30310547 -87.82517578 28.12134766 -89.07958984 27.93408203 C-92.07817603 27.48723389 -95.07748144 27.04603018 -98.07763672 26.60986328 C-86.72661892 12.91325657 -71.9021952 4.0866616 -55.07763672 -1.39013672 C-54.14564453 -1.70982422 -53.21365234 -2.02951172 -52.25341797 -2.35888672 C-35.37963075 -7.22502562 -16.4396496 -5.58014848 0 0 Z " fill="#71BFE6" transform="translate(285.07763671875,98.39013671875)"/>
<path d="M0 0 C1.71860229 0.00845947 1.71860229 0.00845947 3.47192383 0.01708984 C30.97907576 0.4089683 55.38470135 11.7624109 75.1875 30.75 C96.50064681 52.99656929 104.12665611 79.13214673 103.62109375 109.26953125 C102.79880656 135.73408766 89.66730368 161.12511795 70.69921875 179.265625 C51.25361748 196.39082679 28.19374612 204.76125599 2.4375 204.75 C1.7064505 204.75073517 0.975401 204.75147034 0.22219849 204.75222778 C-11.67394323 204.72083182 -22.46304234 203.62325126 -33.625 199.3125 C-34.32850586 199.05017578 -35.03201172 198.78785156 -35.75683594 198.51757812 C-49.58057124 193.26039835 -60.94128977 185.54950458 -71.625 175.3125 C-72.26179688 174.72726562 -72.89859375 174.14203125 -73.5546875 173.5390625 C-89.14304656 158.78208259 -99.63550162 135.22574453 -100.81396484 113.89160156 C-100.89242733 110.19636846 -100.89802769 106.5084443 -100.875 102.8125 C-100.88273438 101.57113281 -100.89046875 100.32976562 -100.8984375 99.05078125 C-100.84635221 74.33631063 -91.24477369 51.53312755 -74.625 33.3125 C-73.94050781 32.54679687 -73.25601563 31.78109375 -72.55078125 30.9921875 C-59.2879376 16.9203349 -41.37380611 6.85357774 -22.625 2.3125 C-21.55451416 2.0486853 -21.55451416 2.0486853 -20.46240234 1.77954102 C-13.61986832 0.23416453 -6.99912198 -0.03609655 0 0 Z M-67.625 40.3125 C-67.625 40.6425 -67.625 40.9725 -67.625 41.3125 C-66.92117187 41.39701416 -66.21734375 41.48152832 -65.4921875 41.56860352 C-51.28586477 43.3385982 -38.17412187 45.15858205 -25.625 52.3125 C-24.97515137 52.68101074 -24.32530273 53.04952148 -23.65576172 53.42919922 C-21.68813641 54.56910791 -19.74566768 55.7401687 -17.8125 56.9375 C-16.93996582 57.47733521 -16.93996582 57.47733521 -16.04980469 58.02807617 C-11.85213024 60.78947272 -9.26907894 63.53147697 -8.12109375 68.48828125 C-7.93783908 75.17096837 -10.22217912 78.47483261 -14.625 83.3125 C-15.31335938 84.08335937 -16.00171875 84.85421875 -16.7109375 85.6484375 C-18.21298075 87.31913122 -19.71960549 88.98571575 -21.23046875 90.6484375 C-23.77827071 93.48302304 -26.28445401 96.34349322 -28.75 99.25 C-29.51570313 100.14589844 -30.28140625 101.04179687 -31.0703125 101.96484375 C-31.58335937 102.73957031 -32.09640625 103.51429688 -32.625 104.3125 C-31.93615563 107.49217928 -31.93615563 107.49217928 -29.20410156 108.69116211 C-28.1519043 109.15272705 -27.09970703 109.61429199 -26.015625 110.08984375 C-24.86835938 110.60353516 -23.72109375 111.11722656 -22.5390625 111.64648438 C-21.32992187 112.17564453 -20.12078125 112.70480469 -18.875 113.25 C-16.50227943 114.29415079 -14.1323711 115.34472063 -11.765625 116.40234375 C-10.70891602 116.86503662 -9.65220703 117.32772949 -8.56347656 117.80444336 C-3.93198968 120.18137045 -0.53553491 122.89182592 2.125 127.375 C2.53234375 128.04660156 2.9396875 128.71820313 3.359375 129.41015625 C6.4837728 135.26239366 6.72888559 141.91009696 5.375 148.3125 C1.79544602 158.68885186 -2.79008213 170.41174248 -10.625 178.3125 C-14.71598699 179.67616233 -18.35108074 179.92935433 -22.625 179.3125 C-28.44015136 175.89182273 -31.83550133 170.38547107 -34.625 164.3125 C-35 160.6875 -35 160.6875 -34.625 158.3125 C-31.5625 157.625 -31.5625 157.625 -27.625 158.3125 C-25.55319771 161.01942139 -23.97890526 163.79028581 -22.3984375 166.80859375 C-20.8394705 169.54619953 -20.8394705 169.54619953 -17.9140625 170.16015625 C-17.15867187 170.21042969 -16.40328125 170.26070312 -15.625 170.3125 C-9.59957855 161.79005705 -1.86578504 149.17880495 -3.06640625 138.41015625 C-4.57363782 132.75013278 -6.5114197 129.62755458 -11.58203125 126.47265625 C-16.4653974 123.96794432 -21.44928582 121.79666475 -26.51171875 119.68359375 C-27.13828369 119.42078613 -27.76484863 119.15797852 -28.41040039 118.88720703 C-30.15473681 118.16447069 -31.90917789 117.46626461 -33.6640625 116.76953125 C-36.6916568 115.27969922 -38.48430088 113.90043439 -40.625 111.3125 C-41.88655717 107.52782848 -42.14082198 105.31012033 -41.625 101.3125 C-38.00727321 95.19978922 -32.66220238 90.10952484 -27.91796875 84.8671875 C-25.5836443 82.26642397 -23.26365773 79.66266197 -21 77 C-20.32710938 76.22011719 -19.65421875 75.44023437 -18.9609375 74.63671875 C-17.42436496 72.39103869 -17.42436496 72.39103869 -17.5625 69.765625 C-20.56402229 62.83563972 -32.29638117 58.74862555 -39.0625 55.9375 C-46.13884874 53.16924399 -53.06849886 51.89249461 -60.625 51.3125 C-61.27597656 51.23676758 -61.92695313 51.16103516 -62.59765625 51.08300781 C-67.06334776 50.57319621 -71.18489273 50.36104844 -75.625 51.3125 C-78.84185721 54.14070346 -80.09231101 57.37434079 -81.625 61.3125 C-82.058125 62.14265625 -82.49125 62.9728125 -82.9375 63.828125 C-90.04887923 77.62758707 -91.26722103 92.0597505 -90.625 107.3125 C-85.95800675 108.08199084 -81.43524193 108.42659285 -76.70947266 108.55151367 C-60.23028521 109.0438936 -60.23028521 109.0438936 -54.12890625 114.69921875 C-52.8125 116.1875 -52.8125 116.1875 -50.625 119.3125 C-49.84125 120.3025 -49.0575 121.2925 -48.25 122.3125 C-46.31632437 125.88236271 -46.52963974 127.4787391 -47.625 131.3125 C-50.40234375 131.61328125 -50.40234375 131.61328125 -53.625 131.3125 C-55.56640625 129.23046875 -55.56640625 129.23046875 -57.1875 126.5 C-59.57022914 122.54021272 -61.38327662 120.27602773 -65.625 118.3125 C-68.33163053 117.73913766 -68.33163053 117.73913766 -71.1875 117.625 C-72.74404297 117.52832031 -72.74404297 117.52832031 -74.33203125 117.4296875 C-79.43195457 117.24819557 -84.52290236 117.23108355 -89.625 117.3125 C-89.53126232 136.80993773 -77.46999461 155.18581948 -64.5625 168.8125 C-45.43629155 187.52007734 -20.83178012 194.74715107 5.36206055 194.6081543 C25.559943 194.23840261 43.74755209 188.44753198 59.375 175.3125 C60.23480469 174.60222656 61.09460938 173.89195312 61.98046875 173.16015625 C71.29232158 165.14435556 77.87581226 156.26921496 83.375 145.3125 C82.23804688 144.9721875 81.10109375 144.631875 79.9296875 144.28125 C59.59747662 137.99131795 41.77407705 127.59304417 30.84375 108.66015625 C27.25265747 101.547798 25.9193655 95.61336553 28.05078125 87.8515625 C30.72607108 81.30278352 35.2324948 77.41916816 40.7409668 73.24243164 C44.56430536 70.29612332 46.8112064 67.90406418 48.375 63.3125 C49.08556821 55.11237945 47.35170951 47.11544902 45.9375 39.0625 C45.70441274 37.70063455 45.47198623 36.33865584 45.24023438 34.9765625 C44.6303127 31.41957002 44.01469791 27.86425558 43.375 24.3125 C43.25020264 23.38356934 43.12540527 22.45463867 42.99682617 21.49755859 C42.79162354 20.77648926 42.5864209 20.05541992 42.375 19.3125 C39.88676585 17.96934873 37.77646475 17.06051741 35.125 16.1875 C34.39337646 15.93597168 33.66175293 15.68444336 32.90795898 15.42529297 C30.73775222 14.69534658 28.55838341 14.00182607 26.375 13.3125 C24.85326172 12.79429688 24.85326172 12.79429688 23.30078125 12.265625 C-10.14803046 2.59148028 -43.98988166 16.8571164 -67.625 40.3125 Z " fill="#030505" transform="translate(254.625,83.6875)"/>
<path d="M0 0 C0.91281738 0.22574707 1.82563477 0.45149414 2.76611328 0.68408203 C35.45990083 8.97106757 62.658607 24.84863066 87 48 C87.94939453 48.87011719 87.94939453 48.87011719 88.91796875 49.7578125 C98.95118315 59.24289405 107.00366551 71.15885177 114 83 C114.37366699 83.63212402 114.74733398 84.26424805 115.13232422 84.91552734 C129.41270053 109.49969757 136.3323431 136.76353665 138 165 C138.0721875 166.06992188 138.144375 167.13984375 138.21875 168.2421875 C138.80529507 185.49638827 134.32077342 202.74492352 129 219 C128.68289063 219.96921387 128.36578125 220.93842773 128.0390625 221.93701172 C122.52047293 238.51684404 115.63355559 254.29516974 108 270 C107.70784607 270.60279785 107.41569214 271.2055957 107.11468506 271.82666016 C98.67259103 289.235103 89.74445038 306.27840538 80 323 C78.9881245 324.75150417 77.97626571 326.50301807 76.9649353 328.25483704 C68.49732458 342.90882058 59.79104052 357.36799845 50.57714844 371.56884766 C49.05813518 373.91038543 47.54731584 376.25698966 46.0390625 378.60546875 C43.8094856 382.07297263 41.56734614 385.53197786 39.31445312 388.984375 C38.41012374 390.37110296 37.50789769 391.75920412 36.60742188 393.1484375 C35.24441457 395.24887157 33.87337567 397.34383477 32.5 399.4375 C32.09040039 400.07099365 31.68080078 400.7044873 31.25878906 401.35717773 C29.3379465 404.26541065 27.94200984 406.03866011 25 408 C22.4375 407.8125 22.4375 407.8125 20 407 C18 404 18 404 18.1628418 401.65673828 C19.1513038 398.51983437 20.56448477 396.22638496 22.39453125 393.4921875 C23.09658691 392.43314209 23.79864258 391.37409668 24.52197266 390.28295898 C24.89541809 389.72744354 25.26886353 389.1719281 25.65362549 388.59957886 C27.2261846 386.25937535 28.78017508 383.90705499 30.33544922 381.55534363 C31.11972046 380.36987199 31.90487735 379.18498581 32.69091797 378.00068665 C53.5915184 346.50473503 72.8936121 313.70194185 90 280 C90.37705078 279.26104492 90.75410156 278.52208984 91.14257812 277.76074219 C93.13518886 273.85074819 95.09690336 269.92712777 97.02587891 265.98535156 C97.69554419 264.62050995 98.36996804 263.2579961 99.04833984 261.89746094 C103.97789473 251.99412008 108.32885865 241.94699167 112.3125 231.625 C112.72097168 230.56812988 113.12944336 229.51125977 113.55029297 228.42236328 C117.68521159 217.51657915 121.24477949 206.33879211 124 195 C124.17136475 194.33162109 124.34272949 193.66324219 124.51928711 192.97460938 C126.29566472 185.30788728 126.3553644 177.7127253 126.3125 169.875 C126.31067719 169.18547241 126.30885437 168.49594482 126.30697632 167.78552246 C126.26118204 157.5067217 125.65062338 147.97694641 123 138 C122.63035538 136.45240774 122.26332434 134.90418968 121.8984375 133.35546875 C114.90996498 104.4674759 100.64927999 80.04339731 81 58 C80.30777344 57.22269531 79.61554688 56.44539063 78.90234375 55.64453125 C64.05102094 39.93475047 44.75922676 28.40731745 25 20 C24.37544922 19.73058594 23.75089844 19.46117188 23.10742188 19.18359375 C12.75164141 14.78637005 2.32666615 12.28580419 -8.74609375 10.390625 C-10.65869176 10.05915221 -12.56467882 9.68988348 -14.46875 9.3125 C-54.05369527 2.25775728 -97.00718491 13.01911567 -130.05566406 35.39160156 C-153.62653651 51.95881092 -171.71526075 72.4993363 -185 98 C-185.48944092 98.93779297 -185.48944092 98.93779297 -185.98876953 99.89453125 C-190.66408702 109.0007365 -193.8475342 118.23242719 -196.48876953 128.109375 C-196.93694537 129.76681228 -197.4170787 131.41553984 -197.90234375 133.0625 C-201.19045916 144.31734281 -202.36846698 155.55035714 -202.3125 167.25 C-202.30976074 168.42151611 -202.30702148 169.59303223 -202.30419922 170.80004883 C-202.19212145 180.15983086 -201.18293652 188.89775551 -199 198 C-198.57654297 199.82144531 -198.57654297 199.82144531 -198.14453125 201.6796875 C-193.18987134 221.19512451 -185.49630032 239.80304164 -177 258 C-176.5162793 259.04430176 -176.03255859 260.08860352 -175.53417969 261.16455078 C-168.59092034 276.10287014 -161.08601973 290.65088821 -153 305 C-152.0711499 306.65418945 -152.0711499 306.65418945 -151.12353516 308.34179688 C-143.02242357 322.75324536 -134.7295109 337.02333019 -125.89453125 351.00097656 C-124.40797041 353.35418705 -122.92714593 355.71070953 -121.44921875 358.06933594 C-114.22871605 369.57299297 -106.84265655 380.9611565 -99.36376953 392.29833984 C-97.49824018 395.12766901 -95.63766715 397.96021468 -93.77734375 400.79296875 C-86.82459216 411.35676156 -79.728049 421.79339819 -72.36973572 432.07887268 C-70.38647046 434.86050786 -68.4225618 437.65563726 -66.45874023 440.45101929 C-61.68148529 447.24779005 -56.85714166 454.01010701 -52 460.75 C-51.18994507 461.87619751 -51.18994507 461.87619751 -50.36352539 463.02514648 C-48.18003958 466.04724483 -45.99305327 469.00845491 -43.625 471.890625 C-42 474 -42 474 -42 476 C-39.36 476 -36.72 476 -34 476 C-33.75894531 475.46632813 -33.51789063 474.93265625 -33.26953125 474.3828125 C-31.65861054 471.35923824 -29.69586013 468.64103809 -27.6875 465.875 C-27.04022949 464.976604 -27.04022949 464.976604 -26.37988281 464.06005859 C-25.4340496 462.74810716 -24.48688484 461.43711494 -23.53857422 460.12695312 C-21.90869073 457.8737724 -20.28406932 455.61686199 -18.66015625 453.359375 C-17.52361411 451.7811228 -16.38689759 450.20299617 -15.25 448.625 C-14.71979248 447.88878418 -14.18958496 447.15256836 -13.64331055 446.39404297 C-3.89627141 432.89627141 -3.89627141 432.89627141 -2 431 C0.33297433 430.95907063 2.66705225 430.95758277 5 431 C6.01995355 434.50696356 6.57977449 436.70804266 5.05712891 440.10107422 C3.56284984 442.45526361 1.97243903 444.69696171 0.3125 446.9375 C-0.27748779 447.76507813 -0.86747559 448.59265625 -1.4753418 449.4453125 C-3.29400265 451.98119514 -5.14128275 454.49336714 -7 457 C-7.55075195 457.74652832 -8.10150391 458.49305664 -8.66894531 459.26220703 C-11.17939874 462.6560253 -13.71286619 466.03057195 -16.2734375 469.38671875 C-18.0127285 471.67203803 -19.70734825 473.97739768 -21.3515625 476.33203125 C-22.03992188 477.31558594 -22.72828125 478.29914063 -23.4375 479.3125 C-24.01371094 480.15425781 -24.58992187 480.99601562 -25.18359375 481.86328125 C-28.01945466 485.19922946 -30.55524765 486.78416217 -34.90234375 487.43359375 C-35.90394531 487.43488281 -36.90554688 487.43617188 -37.9375 487.4375 C-39.43603516 487.46650391 -39.43603516 487.46650391 -40.96484375 487.49609375 C-46.4808472 486.5945076 -49.69319058 483.63383978 -52.97265625 479.3046875 C-54.01300161 477.83543223 -55.04241158 476.3583911 -56.0625 474.875 C-57.21061029 473.2445612 -58.35905707 471.61435931 -59.5078125 469.984375 C-60.08821289 469.15357422 -60.66861328 468.32277344 -61.26660156 467.46679688 C-63.42473456 464.39556084 -65.62816306 461.35903935 -67.83740234 458.32446289 C-83.1494976 437.27675673 -97.65198272 415.71094356 -112 394 C-112.57192078 393.13486786 -112.57192078 393.13486786 -113.15539551 392.2522583 C-127.06283913 371.20380824 -140.28807483 349.79018086 -153 328 C-153.49854492 327.15002441 -153.99708984 326.30004883 -154.51074219 325.42431641 C-162.65527725 311.51632821 -170.16632436 297.31574107 -177.48876953 282.95947266 C-178.74291638 280.50345195 -180.00696187 278.05310631 -181.27734375 275.60546875 C-190.65414015 257.39879756 -198.81873738 238.52954269 -205 219 C-205.27183105 218.14986328 -205.54366211 217.29972656 -205.82373047 216.42382812 C-211.08024744 199.75908957 -215.09901062 182.58417 -214 165 C-213.95746094 164.26265625 -213.91492188 163.5253125 -213.87109375 162.765625 C-210.91990227 115.24387498 -190.10825455 72.12334222 -155 40 C-132.43489157 20.37635255 -105.01866839 6.89067861 -76 0 C-75.32710937 -0.16661133 -74.65421875 -0.33322266 -73.9609375 -0.50488281 C-51.37108035 -5.8533637 -22.49055997 -5.73120359 0 0 Z " fill="#020100" transform="translate(294,14)"/>
<path d="M0 0 C1.2900293 -0.01409912 2.58005859 -0.02819824 3.90917969 -0.04272461 C16.84915638 0.02218891 28.97185811 2.29326914 41 7.0625 C42.33478394 7.58360352 42.33478394 7.58360352 43.6965332 8.11523438 C55.50367666 12.85217455 65.81392442 18.99010247 75.4375 27.375 C76.70207031 28.4578125 76.70207031 28.4578125 77.9921875 29.5625 C85.105638 35.78947187 91.57912813 42.19760576 96.5 50.3125 C99.21119668 54.60152426 101.47312946 55.25099158 106.4375 56.375 C108.4375 58.4375 108.4375 58.4375 109.4375 61.375 C109.36879953 64.42952858 108.92843311 67.36433792 108.4375 70.375 C108.4375 71.035 108.4375 71.695 108.4375 72.375 C109.55125 72.601875 110.665 72.82875 111.8125 73.0625 C115.4375 74.375 115.4375 74.375 116.9375 76.75 C117.44849965 79.43274815 117.42730765 80.85548962 116.4375 83.375 C116.1075 83.705 115.7775 84.035 115.4375 84.375 C115.2000248 88.72871203 115.38492532 92.43965284 116.421875 96.66796875 C117.89065864 103.80440567 117.87725601 110.99488613 117.875 118.25 C117.8760675 118.97910583 117.87713501 119.70821167 117.87823486 120.45941162 C117.85244138 132.68518719 116.5433714 143.80985626 112.4375 155.375 C112.21288086 156.04047852 111.98826172 156.70595703 111.75683594 157.39160156 C106.71089983 172.13278609 98.98931045 185.89555786 88.4375 197.375 C87.9739209 197.88627441 87.5103418 198.39754883 87.03271484 198.92431641 C69.5831791 217.97525169 47.52826811 229.69430903 22.4375 235.375 C21.40625 235.61992187 20.375 235.86484375 19.3125 236.1171875 C-8.75481439 241.80861514 -40.71003395 234.46520012 -64.5859375 219.0703125 C-90.04459932 201.80524299 -107.36645826 178.00141013 -115.5625 148.375 C-115.96964233 146.93894409 -115.96964233 146.93894409 -116.38500977 145.47387695 C-118.62420506 136.85002962 -118.98378075 128.69336066 -118.875 119.8125 C-118.87822266 118.49314453 -118.88144531 117.17378906 -118.88476562 115.81445312 C-118.84112108 107.80369451 -118.18539293 100.21885858 -116.5625 92.375 C-116.17191406 90.46654297 -116.17191406 90.46654297 -115.7734375 88.51953125 C-108.14914981 58.12926304 -87.64891027 31.91426781 -60.90820312 15.82446289 C-41.69405875 4.7391965 -22.05909342 0.16242118 0 0 Z M-31.5625 20.375 C-32.19124023 20.57867187 -32.81998047 20.78234375 -33.46777344 20.9921875 C-49.9249585 26.47509543 -63.45980642 36.11824102 -75.5625 48.375 C-76.23667969 49.05046875 -76.91085938 49.7259375 -77.60546875 50.421875 C-98.61034591 72.91680065 -103.31645525 100.34271644 -102.69433594 129.99707031 C-101.76798408 153.73226356 -89.24960191 176.10083315 -72.5625 192.375 C-71.34433594 193.60669922 -71.34433594 193.60669922 -70.1015625 194.86328125 C-52.25643209 212.02662096 -26.6706425 221.19717733 -2.13525391 220.89648438 C-0.06163782 220.87499106 2.00851689 220.89646309 4.08203125 220.921875 C16.85913914 220.94954615 29.18978155 218.46297923 40.8125 213 C41.47403076 212.69819824 42.13556152 212.39639648 42.81713867 212.08544922 C67.55267766 200.58911739 85.65688855 180.69641196 95.4375 155.375 C104.95070472 128.35589201 103.97826278 99.27979263 91.9921875 73.234375 C77.93579327 46.3505609 55.13968162 28.95860513 26.77734375 19.234375 C7.94439861 14.38847099 -13.04394498 14.17343739 -31.5625 20.375 Z " fill="#EBEBEB" transform="translate(256.5625,67.625)"/>
<path d="M0 0 C1.06131638 0.00323273 1.06131638 0.00323273 2.14407349 0.00653076 C35.40960537 0.16923059 64.6511441 13.19542778 89.25 35.3125 C90.06597656 36.04339844 90.88195312 36.77429688 91.72265625 37.52734375 C96.26919074 41.83332086 100.11074326 46.53023023 103.8125 51.5625 C104.47608521 52.44869019 104.47608521 52.44869019 105.15307617 53.3527832 C106.9955139 55.94599321 108.19589963 57.93642366 108.65234375 61.109375 C108.25 63.3125 108.25 63.3125 106.25 65.3125 C103.39453125 65.7734375 103.39453125 65.7734375 100.25 65.3125 C98.01171875 63.0390625 98.01171875 63.0390625 95.9375 59.9375 C95.15862813 58.82423904 94.37599852 57.71359872 93.58984375 56.60546875 C93.19909668 56.04778809 92.80834961 55.49010742 92.40576172 54.91552734 C79.8111365 37.44693647 61.41969454 25.5847594 41.625 17.875 C40.81546875 17.55700439 40.0059375 17.23900879 39.171875 16.91137695 C26.73096862 12.32379272 14.20090254 10.77015829 1 10.875 C-0.0068132 10.87956207 -0.0068132 10.87956207 -1.03396606 10.88421631 C-12.33643389 10.95956275 -22.93555753 11.95549538 -33.75 15.3125 C-34.43513672 15.52148926 -35.12027344 15.73047852 -35.82617188 15.94580078 C-50.57311557 20.60217964 -64.14038626 28.08970019 -75.75 38.3125 C-76.97589844 39.34117188 -76.97589844 39.34117188 -78.2265625 40.390625 C-98.65057375 57.96918577 -113.8598626 84.55379271 -116.55810547 111.63647461 C-117.86880336 129.91454024 -117.84818753 147.86828228 -111.75 165.3125 C-111.52538086 165.98087891 -111.30076172 166.64925781 -111.06933594 167.33789062 C-106.01957215 182.08290687 -98.29112533 195.81927302 -87.75 207.3125 C-86.86828125 208.28703125 -85.9865625 209.2615625 -85.078125 210.265625 C-65.21620207 231.52454302 -36.76271282 244.66209681 -7.75 246.3125 C-6.65486084 246.37824219 -6.65486084 246.37824219 -5.53759766 246.4453125 C7.15905669 247.09241317 18.95760087 245.46379069 31.25 242.3125 C31.9198291 242.14121582 32.5896582 241.96993164 33.27978516 241.79345703 C62.7631463 233.88921316 86.94235609 213.68820416 102.3671875 187.79296875 C107.72835034 178.46855375 111.38166148 168.66220691 114.25 158.3125 C114.65714233 156.89602173 114.65714233 156.89602173 115.07250977 155.45092773 C117.2384852 147.18974504 117.6855425 139.26045411 117.58618164 130.78198242 C117.56240832 128.61664935 117.56567189 126.45254183 117.57226562 124.28710938 C117.55763761 117.50542542 117.33603815 110.9891525 115.70092773 104.3659668 C114.94654602 100.93060967 114.99967177 97.81709521 115.25 94.3125 C117.25 92.3125 117.25 92.3125 119.6875 91.875 C122.25 92.3125 122.25 92.3125 123.80615234 94.47729492 C128.84964265 104.3809224 128.75038146 115.64510363 128.625 126.5 C128.62001495 127.22616516 128.61502991 127.95233032 128.6098938 128.70050049 C128.33805003 162.50299582 116.86977138 192.67429735 93.25 217.3125 C92.44175781 218.19550781 91.63351562 219.07851563 90.80078125 219.98828125 C68.86052995 243.17476506 35.51774507 256.79463511 3.7722168 257.78491211 C-32.89278804 258.13404378 -66.0756514 243.75757966 -92.1875 218.3125 C-106.55040608 203.94239537 -116.05619681 186.79940874 -122.625 167.6875 C-122.91149414 166.86548096 -123.19798828 166.04346191 -123.49316406 165.1965332 C-127.30528078 153.52049219 -128.1051908 141.56572477 -128.06567383 129.35351562 C-128.06250119 127.3132633 -128.08614502 125.27445131 -128.11132812 123.234375 C-128.15394339 114.24890234 -126.96019428 106.01328011 -124.75 97.3125 C-124.34624146 95.59740234 -124.34624146 95.59740234 -123.93432617 93.84765625 C-116.49837031 63.00509073 -94.43832412 35.53758877 -67.8984375 18.765625 C-46.8328429 6.00658889 -24.59295009 -0.13476774 0 0 Z " fill="#060403" transform="translate(255.75,57.6875)"/>
<path d="M0 0 C42.70553054 0.88775173 81.78757242 19.86072874 111.08203125 50.3671875 C138.15065257 79.46037166 153.20095121 119.40561811 152.00390625 159.08203125 C151.65469187 166.05755728 150.54084084 172.5610441 148.6875 179.3125 C148.48350586 180.06031738 148.27951172 180.80813477 148.06933594 181.57861328 C142.88459781 200.32140387 136.03485355 218.2351987 127.83154297 235.85253906 C126.72210043 238.23810096 125.62779158 240.63014107 124.53515625 243.0234375 C119.30179018 254.38541334 113.44996943 265.35352569 107.36914062 276.28173828 C105.59339888 279.48209513 103.83484607 282.69151038 102.078125 285.90234375 C89.80946231 308.25839546 76.49088313 329.87726652 62.6875 351.3125 C62.15302246 352.14313965 61.61854492 352.9737793 61.06787109 353.82958984 C49.93889255 371.09987491 38.68820538 388.31326438 26.875 405.125 C26.1468811 406.16466919 26.1468811 406.16466919 25.40405273 407.2253418 C21.07650766 413.32737441 21.07650766 413.32737441 18.6875 415.3125 C13.25271739 414.87771739 13.25271739 414.87771739 11.6875 413.3125 C11.87143226 406.79126524 14.47728982 403.17286339 18.3125 398.0625 C25.21835072 388.53102567 31.74169712 378.783716 38.1875 368.9375 C38.68834106 368.17295502 39.18918213 367.40841003 39.7052002 366.62069702 C58.41723821 338.03948041 76.61291608 309.20971594 93.06738281 279.26025391 C94.64952427 276.38159568 96.24193321 273.50882103 97.8359375 270.63671875 C124.7598864 221.9453835 151.01443559 170.78151562 135.3671875 114.28515625 C124.5987423 78.70948739 99.92791791 47.51082649 67.42895508 29.55664062 C45.25347063 17.77112017 21.536566 11.15870879 -3.64453125 10.68359375 C-4.52496094 10.56113281 -5.40539062 10.43867187 -6.3125 10.3125 C-8.3125 7.3125 -8.3125 7.3125 -8.0625 4.75 C-6.62134704 0.06625288 -4.49437141 0.01748783 0 0 Z " fill="#F6CDBD" transform="translate(259.3125,30.6875)"/>
<path d="M0 0 C18.46937118 1.03833429 32.13977953 6.87317388 47.10546875 17.25 C46.77010846 22.85890091 44.43091621 25.62605235 40.60546875 29.4375 C39.51182064 30.57181149 38.42070614 31.70857077 37.33203125 32.84765625 C36.78836914 33.41371582 36.24470703 33.97977539 35.68457031 34.56298828 C27.13450435 43.08544789 27.13450435 43.08544789 22.79296875 53.625 C23.12701147 57.49989559 23.74260231 59.21202887 26.10546875 62.25 C28.99660787 64.67876289 31.86472427 66.13281008 35.3515625 67.5546875 C36.35380859 67.97363281 37.35605469 68.39257812 38.38867188 68.82421875 C40.48545117 69.68889677 42.58441036 70.54830815 44.68554688 71.40234375 C50.18061961 73.71048606 54.31124913 75.60129703 58.10546875 80.25 C58.70359375 80.971875 59.30171875 81.69375 59.91796875 82.4375 C62.08445289 87.56864666 61.88514848 92.81263792 60.19555664 98.09448242 C58.96230578 101.0305921 57.62987358 103.88950858 56.23046875 106.75 C55.77027344 107.73742187 55.31007813 108.72484375 54.8359375 109.7421875 C51.45104505 116.9044237 51.45104505 116.9044237 49.10546875 119.25 C46.6953125 119.22265625 46.6953125 119.22265625 44.10546875 118.25 C42.11572992 115.49530757 40.63384771 112.6229578 39.046875 109.62109375 C37.27124801 106.88568181 37.27124801 106.88568181 33.8828125 106.91015625 C32.50802734 107.07837891 32.50802734 107.07837891 31.10546875 107.25 C27.10546875 100.5 27.10546875 100.5 27.10546875 98.25 C26.15671875 98.29125 25.20796875 98.3325 24.23046875 98.375 C21.10546875 98.25 21.10546875 98.25 19.10546875 96.25 C18.86767347 93.1586614 19.11581856 91.21895056 20.10546875 88.25 C19.61046875 87.54875 19.11546875 86.8475 18.60546875 86.125 C16.90920359 82.87382512 17.11559411 82.44563645 17.85546875 79.0625 C18.54656853 74.66592905 17.48046191 72.5748291 14.98046875 68.9375 C10.63569254 63.38823138 6.97075656 60.13015269 0.10546875 58.25 C-3.03616184 57.90460935 -6.17415661 57.78872976 -9.33203125 57.6875 C-14.92604966 57.48096515 -20.36550393 57.15042033 -25.89453125 56.25 C-26.71072502 36.86539796 -23.15736156 21.34914672 -13.89453125 4.25 C-13.45882812 3.43917969 -13.023125 2.62835938 -12.57421875 1.79296875 C-9.2054226 -1.30162306 -4.31409991 -0.15203427 0 0 Z " fill="#13BD6C" transform="translate(189.89453125,134.75)"/>
<path d="M0 0 C18.13421277 10.27498024 30.96454068 30.79666863 36.6875 50.5 C41.71493874 68.69988997 40.44215405 90.43048895 34 108 C17.73998558 107.60429168 3.02171907 98.5063875 -8 87 C-17.79124028 75.06385591 -17.79124028 75.06385591 -18.1171875 68.71875 C-17.56366287 63.64775018 -16.83161824 60.63512499 -13 57 C-11.00676513 55.48213913 -8.98579048 54.00660756 -6.9609375 52.53125 C-2.00959792 48.66486531 1.09583054 44.01316671 3 38 C3.56014354 30.83405372 2.57795494 23.81983059 1.5 16.75 C-0.21428571 5.32142857 -0.21428571 5.32142857 0 0 Z " fill="#13BD6C" transform="translate(309,111)"/>
<path d="M0 0 C1.30710938 0.02449219 2.61421875 0.04898438 3.9609375 0.07421875 C6.96464712 0.26955594 9.70451353 0.61902541 12.625 1.3125 C10.48163926 5.18703673 8.26368455 8.83616708 5.6875 12.4375 C-2.97290095 25.36249232 -5.44633932 41.08246489 -6.375 56.3125 C-11.655 56.3125 -16.935 56.3125 -22.375 56.3125 C-22.99078147 36.76143844 -19.72375721 21.57026742 -10.375 4.3125 C-9.95089844 3.50039062 -9.52679688 2.68828125 -9.08984375 1.8515625 C-6.30303504 -0.64958244 -3.63839282 -0.10364773 0 0 Z " fill="#73FDB8" transform="translate(186.375,134.6875)"/>
<path d="M0 0 C1.3921875 0.3403125 1.3921875 0.3403125 2.8125 0.6875 C8.94735076 15.95159296 7.44214249 37.35820388 1.7109375 52.62109375 C1.26621094 53.64396484 1.26621094 53.64396484 0.8125 54.6875 C-2.1575 54.3575 -5.1275 54.0275 -8.1875 53.6875 C-9.20581592 49.61423631 -9.21796956 49.00472185 -7.8125 45.375 C-5.19226721 38.5550483 -5.02401679 31.70870487 -5.0625 24.5 C-5.06213745 23.25186523 -5.06213745 23.25186523 -5.06176758 21.97851562 C-5.09010319 16.24027739 -5.46176927 10.62602967 -6.26171875 4.9375 C-6.1875 2.6875 -6.1875 2.6875 -4.90625 0.85546875 C-3.1875 -0.3125 -3.1875 -0.3125 0 0 Z " fill="#72FCB7" transform="translate(335.1875,162.3125)"/>
<path d="M0 0 C3.63 0 7.26 0 11 0 C11.20753906 0.77601563 11.41507813 1.55203125 11.62890625 2.3515625 C15.23343114 14.99002215 20.27886761 25.84805522 29.27734375 35.59765625 C31.26626813 38.3713263 31.54610646 39.66143162 31 43 C29 45 29 45 25.71875 45.0078125 C21.11445974 43.76001115 19.20499524 41.58523332 16.5 37.875 C15.79508423 36.93926147 15.79508423 36.93926147 15.07592773 35.98461914 C8.1280363 26.43201314 0 11.96378941 0 0 Z " fill="#BEE4FE" transform="translate(172,202)"/>
<path d="M0 0 C1.0528418 0.02707031 1.0528418 0.02707031 2.12695312 0.0546875 C3.85605436 0.10173787 5.58445205 0.17348127 7.3125 0.25 C7.3125 0.58 7.3125 0.91 7.3125 1.25 C4.6725 1.25 2.0325 1.25 -0.6875 1.25 C-0.93757813 1.92417969 -1.18765625 2.59835938 -1.4453125 3.29296875 C-2.64478321 6.14831254 -4.04198796 8.836985 -5.50561523 11.56396484 C-13.19828579 26.11055787 -15.30958541 39.92408963 -15.6875 56.25 C-17.9975 56.25 -20.3075 56.25 -22.6875 56.25 C-23.50369377 36.86539796 -19.95033031 21.34914672 -10.6875 4.25 C-10.06101563 3.02990234 -10.06101563 3.02990234 -9.421875 1.78515625 C-6.63730966 -0.67956037 -3.51385685 -0.17060743 0 0 Z " fill="#15BC6C" transform="translate(186.6875,134.75)"/>
<path d="M0 0 C2.97 0.99 5.94 1.98 9 3 C7.7325772 7.48824466 6.11831488 10.49876097 3.125 14.0625 C2.44695312 14.87847656 1.76890625 15.69445312 1.0703125 16.53515625 C0.04550781 17.75525391 0.04550781 17.75525391 -1 19 C-2.05767578 20.33417969 -2.05767578 20.33417969 -3.13671875 21.6953125 C-5.68545335 24.84783538 -7.47085405 26.77622254 -11.5625 27.375 C-14 27 -14 27 -15.875 25.8125 C-17 24 -17 24 -16.828125 21.6484375 C-15.80383609 18.3726456 -14.40960452 17.10223595 -11.875 14.8125 C-7.14778747 10.31975721 -3.54209587 5.45551101 0 0 Z " fill="#BEE4FE" transform="translate(321,224)"/>
<path d="M0 0 C3.25696479 0.41755959 4.63443291 0.63443291 7 3 C7.63778837 6.58286994 7.04987543 7.92005564 5.1015625 11.04296875 C4.28819799 12.10060669 3.46223751 13.14865776 2.625 14.1875 C2.2125 14.72052734 1.8 15.25355469 1.375 15.80273438 C-0.32564365 17.98339841 -2.04329914 20.04329914 -4 22 C-7.29714793 21.67028521 -8.6226839 21.3773161 -11 19 C-10.81850094 13.71383992 -8.71005441 10.76609761 -5.5 6.6875 C-5.08363281 6.15060547 -4.66726563 5.61371094 -4.23828125 5.06054688 C-1.33450893 1.33450893 -1.33450893 1.33450893 0 0 Z " fill="#F6CCBC" transform="translate(262,452)"/>
<path d="M0 0 C2 2 2 2 2.625 4.75 C1.78520218 9.11694864 -0.0399621 10.42675936 -3.63671875 12.8671875 C-7.41345708 14.67752488 -10.92012188 14.79757016 -15 14 C-17.265625 12.96875 -17.265625 12.96875 -19 12 C-15.00976445 6.01464668 -7.67174628 -1.07741953 0 0 Z " fill="#BCE2FB" transform="translate(216,113)"/>
<path d="M0 0 C3.91889623 0.82899728 4.38567098 1.68050694 6.625 4.875 C8.8267679 8.27927191 9.75675368 10.61292647 9.25 14.6875 C7.25 16.6875 7.25 16.6875 4.5 17.375 C0.58110377 16.54600272 0.11432902 15.69449306 -2.125 12.5 C-4.3267679 9.09572809 -5.25675368 6.76207353 -4.75 2.6875 C-2.75 0.6875 -2.75 0.6875 0 0 Z " fill="#72FCB7" transform="translate(322.75,136.3125)"/>
<path d="M0 0 C5.56818182 0.56818182 5.56818182 0.56818182 7 2 C7.1875 4.9375 7.1875 4.9375 7 8 C5 10 5 10 2 10.3125 C1.01 10.209375 0.02 10.10625 -1 10 C-3 7 -3 7 -2.75 4.4375 C-2 2 -2 2 0 0 Z " fill="#040101" transform="translate(304,428)"/>
<path d="M0 0 C2.4375 0.75 2.4375 0.75 4.4375 2.75 C4.10778521 6.04714793 3.8148161 7.3726839 1.4375 9.75 C-1.6875 9.375 -1.6875 9.375 -4.5625 8.75 C-4.8925 6.44 -5.2225 4.13 -5.5625 1.75 C-2.5625 -0.25 -2.5625 -0.25 0 0 Z " fill="#0C0908" transform="translate(369.5625,131.25)"/>
<path d="M0 0 C3 0.25 3 0.25 5 2.25 C5.25 4.75 5.25 4.75 5 7.25 C3 9.25 3 9.25 0 9.5 C-3 9.25 -3 9.25 -5 7.25 C-5.25 4.75 -5.25 4.75 -5 2.25 C-3 0.25 -3 0.25 0 0 Z " fill="#020907" transform="translate(214,223.75)"/>
</svg>
